<?xml version="1.0" standalone="no"?>
<!DOCTYPE svg PUBLIC "-//W3C//DTD SVG 20010904//EN"
 "http://www.w3.org/TR/2001/REC-SVG-20010904/DTD/svg10.dtd">
<svg version="1.0" xmlns="http://www.w3.org/2000/svg"
 width="562.000000pt" height="562.000000pt" viewBox="0 0 562.000000 562.000000"
 preserveAspectRatio="xMidYMid meet">
<metadata>
Created by potrace 1.14, written by Peter Selinger 2001-2017
</metadata>
<g transform="translate(0.000000,562.000000) scale(0.100000,-0.100000)"
fill="#000000" stroke="none">
<path d="M2740 5355 c-209 -80 -311 -124 -381 -165 -45 -28 -83 -50 -85 -50
-1 0 1 12 5 28 9 32 0 74 -16 79 -9 3 -113 -82 -143 -117 -23 -27 -64 -40
-115 -36 -32 2 -75 -3 -101 -12 -58 -19 -134 -88 -165 -149 -30 -60 -31 -61
-82 -57 -153 11 -175 9 -220 -27 -71 -57 -115 -98 -292 -274 -170 -170 -171
-170 -199 -250 -28 -80 -28 -80 -196 -245 -219 -215 -264 -276 -318 -435 -19
-58 -56 -218 -67 -300 -6 -40 -19 -124 -31 -200 -3 -22 -9 -60 -14 -83 -7 -40
-4 -52 41 -140 115 -226 196 -507 155 -541 -8 -7 -23 -11 -33 -9 -16 3 -18 -5
-18 -66 0 -98 10 -131 141 -426 112 -255 183 -428 218 -536 13 -39 23 -54 48
-65 38 -17 61 -60 83 -159 34 -144 111 -257 211 -306 47 -23 75 -28 172 -34
128 -8 157 -16 211 -59 73 -57 170 -91 261 -91 22 0 58 -10 82 -23 24 -13 97
-52 163 -87 66 -35 139 -76 162 -91 45 -31 72 -36 91 -17 9 9 12 3 12 -29 0
-45 -8 -42 90 -29 227 31 489 25 640 -14 29 -7 60 -8 85 -3 59 13 126 -1 213
-44 42 -21 86 -38 97 -39 28 0 44 14 38 36 -6 23 16 35 99 54 123 29 115 30
168 -25 26 -27 52 -49 57 -49 6 0 9 16 8 35 -1 19 4 48 11 65 14 31 23 34 107
30 35 -1 38 1 37 22 -5 57 2 78 36 114 19 21 54 59 77 84 23 25 64 63 91 84
l49 40 38 -42 c21 -22 41 -37 44 -33 9 16 -18 76 -52 114 -18 20 -33 39 -33
42 0 2 31 14 69 25 65 20 71 20 101 5 31 -16 31 -16 19 6 -10 20 -9 25 11 41
12 10 30 18 39 19 113 3 134 15 146 87 4 27 29 67 86 137 80 99 166 223 209
300 73 130 94 172 141 280 68 158 70 165 60 165 -16 0 -126 -113 -161 -165
-41 -62 -48 -67 -81 -61 -23 4 -28 0 -42 -42 -14 -40 -16 -42 -14 -14 2 17 0
32 -4 32 -3 0 -87 -62 -186 -137 -324 -249 -656 -483 -760 -537 -46 -23 -78
-20 -100 10 -17 23 -21 24 -34 12 -27 -27 -68 -50 -79 -43 -5 3 -10 17 -10 31
0 22 -4 24 -45 24 -39 0 -47 -4 -57 -25 -13 -29 -23 -32 -32 -9 -8 22 -26 8
-26 -21 0 -18 -4 -23 -16 -18 -11 4 -23 -3 -35 -18 -18 -23 -20 -23 -30 -5
-18 30 -72 84 -60 60 14 -29 7 -60 -13 -56 -9 2 -16 -1 -15 -5 5 -30 -7 -53
-45 -85 -37 -32 -54 -39 -103 -43 -32 -3 -98 -13 -148 -22 -118 -22 -139 -21
-278 10 -111 25 -154 33 -237 42 -19 2 -54 7 -77 10 -23 3 -68 7 -100 10 -165
13 -250 36 -380 102 -51 25 -93 47 -93 49 0 1 13 16 30 32 21 21 28 36 23 48
-4 11 -8 13 -11 6 -5 -17 -108 -45 -126 -35 -8 4 -61 53 -118 108 -58 55 -165
156 -239 225 -160 148 -377 366 -441 441 -61 73 -87 120 -154 284 -31 77 -60
144 -65 149 -5 5 -15 3 -25 -5 -14 -12 -19 -10 -40 14 -26 31 -29 48 -14 78 8
14 17 18 37 13 21 -6 24 -4 20 12 -4 11 -9 46 -13 79 -3 33 -8 62 -9 65 -2 3
-6 34 -10 70 -4 36 -9 68 -11 71 -2 4 -5 27 -5 52 -2 32 7 64 30 113 18 38 34
89 37 114 2 25 6 61 9 80 2 19 7 60 10 90 3 30 8 71 10 90 3 19 7 60 10 90 6
61 15 142 20 180 2 14 7 45 10 70 27 201 134 436 283 625 105 133 426 441 532
510 59 38 287 175 335 201 11 6 53 29 93 52 41 23 79 42 86 42 7 0 16 4 22 9
5 6 50 26 99 45 176 67 288 87 515 91 161 3 154 2 177 23 25 21 39 73 35 130
-3 37 -6 42 -22 37 -22 -7 -49 6 -101 46 -53 42 -78 49 -119 34z m-1985 -3292
c15 -32 36 -75 47 -97 10 -21 17 -40 15 -42 -10 -10 -67 56 -67 78 0 12 -9 43
-20 67 -23 49 -23 51 -11 51 5 0 21 -26 36 -57z m-78 2 c7 -21 11 -40 9 -42
-8 -8 -57 67 -51 77 12 19 28 5 42 -35z"/>
<path d="M3553 5202 c-75 -3 -84 -5 -105 -30 -22 -26 -26 -27 -104 -24 -95 5
-134 -10 -160 -60 -37 -71 30 -160 161 -215 53 -23 148 -43 199 -43 27 0 94
-35 221 -113 58 -36 292 -193 365 -246 47 -33 92 -65 100 -71 8 -6 71 -51 140
-100 145 -104 156 -107 236 -69 22 10 43 19 47 19 4 0 7 -25 7 -56 0 -66 50
-227 89 -284 14 -21 47 -55 73 -74 25 -20 55 -48 66 -64 35 -49 45 -152 21
-213 -9 -22 -5 -37 22 -90 17 -35 44 -82 59 -104 30 -44 112 -131 129 -136 5
-2 12 -22 14 -43 6 -52 33 -73 60 -48 19 17 19 16 12 -38 -12 -89 -15 -289 -4
-295 5 -4 9 6 9 22 2 110 66 435 95 483 3 6 -1 7 -9 4 -9 -3 -25 -21 -36 -39
-19 -31 -49 -53 -51 -37 0 4 -2 45 -3 92 -3 83 -15 247 -22 284 -2 10 -6 44
-9 75 -3 31 -8 65 -10 76 -2 11 -7 47 -10 80 -7 57 -20 81 -244 437 -130 208
-242 390 -250 405 -24 49 -213 226 -301 284 -152 99 -320 172 -490 214 -60 15
-186 22 -317 17z"/>
<path d="M1310 2814 c0 -729 3 -923 13 -926 6 -2 271 -4 587 -4 l575 1 2 113
2 112 -137 0 c-75 1 -278 1 -449 1 l-313 0 0 300 0 299 410 0 410 0 0 110 0
110 -410 0 -410 0 0 289 0 290 423 0 c232 0 434 1 448 1 l27 0 1 110 c1 61 -2
111 -6 111 -4 1 -270 2 -590 3 l-583 1 0 -921z"/>
<path d="M2825 3731 c-3 -2 -5 -419 -5 -925 l0 -921 138 0 137 0 5 694 5 693
462 -693 461 -694 141 0 141 0 0 922 c0 508 -3 924 -7 924 -5 1 -66 2 -138 3
l-130 1 -5 -693 -5 -694 -455 682 c-250 375 -458 687 -462 693 -7 11 -273 18
-283 8z"/>
</g>
</svg>
